<?xml version="1.0" encoding="utf-8"?>
<!-- Generator: Adobe Illustrator 20.1.0, SVG Export Plug-In . SVG Version: 6.00 Build 0)  -->
<svg version="1.1" id="Слой_1" xmlns="http://www.w3.org/2000/svg" xmlns:xlink="http://www.w3.org/1999/xlink" x="0px" y="0px"
	 viewBox="0 0 117 47.5" style="enable-background:new 0 0 117 47.5;" xml:space="preserve">
<style type="text/css">
	.st0{fill:#FFFFFF;}
</style>
<g>
	<path class="st0" d="M107.9,39.3L98,25.1l8.6-12.2h-6.4l-5.4,7.7l-5.4-7.7l-6.4,0l8.6,12.3l-6.3,9.1H83V18v-5.2h-5.2h-7.9h-5.2
		h-7.9h-5.2V18v5.5h-3.4V18v-5.2h-5.2H35h-5.2V18v5.5H18.7v5.2h0l3.5,3.5v2h-7.9V18h10.4l2.7-5.2H14.3H9.1V18v16.1v5.2h5.2h7.9h5.2
		v-5.2V30l-1.3-1.3h3.7v5.4v5.2H35h7.9h5.2v-5.2v-5.4h3.4v10.6h5.2V28.7H58l2.7-5.2h-4V18h7.9v16.1v5.2h5.2h7.9H83h5l6.8-9.7
		l6.8,9.7H107.9z M35,18h7.9v5.5H35V18z M42.9,34.1H35v-5.4h7.9V34.1z M69.8,34.1V18h7.9v16.1H69.8z"/>
	<polygon class="st0" points="77.8,3.1 69.8,6.2 69.8,11.4 77.8,8.3 	"/>
</g>
</svg>
