<?xml version="1.0" encoding="utf-8"?>
<!-- Generator: Adobe Illustrator 20.1.0, SVG Export Plug-In . SVG Version: 6.00 Build 0)  -->
<svg version="1.1" id="Слой_2" xmlns="http://www.w3.org/2000/svg" xmlns:xlink="http://www.w3.org/1999/xlink" x="0px" y="0px"
	 viewBox="0 0 76 87" style="enable-background:new 0 0 76 87;" xml:space="preserve">
<style type="text/css">
	.st0{fill:#446CEF;}
	.st1{fill:#ECA125;}
	.st2{fill:#F4C245;}
	.st3{fill:#ECF1FA;}
	.st4{fill:#AECEDF;}
	.st5{fill:#FFFFFF;}
</style>
<g>
	<circle class="st0" cx="38.3" cy="47.2" r="35.2"/>
	<path class="st1" d="M9.7,82.2c0-14.8,11.4-26.9,25.8-28.1c0.8-0.1,1.5,2.5,2.3,2.5c0.8,0,1.7-2.6,2.5-2.5
		C54.7,55.4,66,67.5,66,82.2"/>
	<rect x="32.2" y="4" class="st0" width="11.6" height="6.8"/>
	<path class="st2" d="M18.5,82.2c0-17.4,12.8-28.1,17-28.1c0.8,0,1.5,2.5,2.3,2.5c0.8,0,1.7-2.6,2.5-2.5C54.7,55.4,66,67.5,66,82.2"
		/>
	<rect x="29.4" y="11.5" class="st0" width="17.3" height="4.1"/>
	<polygon class="st3" points="37.8,46.2 41.1,43 49,25.5 47.4,23.2 43.4,16.1 31.9,17.1 27.1,23.4 26.7,25.8 	"/>
	<path class="st4" d="M37.6,47.2c-0.3-0.8-0.7-1.6-1-2.4l9-18.1c0.5-1,0.4-2.5-0.3-3.5l-4.2-6.2h-0.6c0.1-0.6,0.2-1.3,0.1-2h1.5
		l4.8,7c1.1,1.5,1.2,3.8,0.4,5.5L37.6,47.2L37.6,47.2z"/>
	<path class="st5" d="M38.1,47.1c0.3-0.8,0.7-1.6,1-2.4l-9-18.1c-0.5-1-0.4-2.5,0.3-3.5l4.2-6.2h0.6c-0.1-0.6-0.2-1.3-0.1-2h-1.5
		l-4.8,7c-1.1,1.5-1.2,3.8-0.4,5.5L38.1,47.1L38.1,47.1z"/>
	<path d="M44.9,12.2H31.2V2.7h13.6V12.2z M33.2,10.2h9.6V4.7h-9.6V10.2z"/>
	<path d="M44.2,17.1H31.9c-1.9,0-3.5-1.5-3.5-3.5c0-1.9,1.5-3.5,3.5-3.5h12.4c1.9,0,3.5,1.5,3.5,3.5C47.7,15.5,46.2,17.1,44.2,17.1z
		 M31.9,12.2c-0.8,0-1.5,0.7-1.5,1.5s0.7,1.5,1.5,1.5h12.4c0.8,0,1.5-0.7,1.5-1.5s-0.7-1.5-1.5-1.5H31.9z"/>
	<path d="M37.8,50.6L26.3,27.5c-0.8-1.7-0.7-4,0.4-5.5l4.8-7h12.8l4.8,7.1c1.1,1.5,1.2,3.8,0.4,5.5L37.8,50.6z M28.1,26.6l9.8,19.5
		l9.8-19.5c0.5-1,0.4-2.5-0.2-3.4L43.2,17H32.5l-4.2,6.2C27.7,24.1,27.6,25.6,28.1,26.6L28.1,26.6z"/>
	<rect x="36.8" y="26.3" width="2" height="22.1"/>
	<circle cx="37.8" cy="24.8" r="2.1"/>
	<circle cx="9.7" cy="82" r="2.6"/>
	<circle cx="9.7" cy="54" r="2.6"/>
	<circle cx="66" cy="82" r="2.6"/>
	<circle cx="66" cy="54" r="2.6"/>
	<path d="M41.1,57.1h-6.6v-6.6h6.6V57.1z M36.5,55.1h2.6v-2.6h-2.6V55.1z"/>
	<path d="M67,82h-2c0-13.8-10.3-25.4-24.1-27l0.2-2C55.9,54.7,67,67.2,67,82z"/>
	<path d="M10.7,82h-2c0-14.8,11.1-27.3,25.8-29l0.2,2C21,56.6,10.7,68.2,10.7,82z"/>
	<rect x="40.3" y="53" width="25.7" height="2"/>
	<rect x="9.7" y="53" width="25.7" height="2"/>
	<rect x="9.7" y="81" width="55.9" height="2"/>
	<g>
		<path class="st5" d="M60.7,33.1c-0.6,0-1-0.4-1-1v-5.9c0-0.6,0.4-1,1-1s1,0.4,1,1v5.9C61.7,32.7,61.3,33.1,60.7,33.1z"/>
		<path class="st5" d="M63.5,30.2h-5.9c-0.6,0-1-0.4-1-1s0.4-1,1-1h5.9c0.6,0,1,0.4,1,1S64.1,30.2,63.5,30.2z"/>
	</g>
	<path class="st5" d="M48,47.8c-0.6,0-1-0.4-1-1v-3.7c0-0.6,0.4-1,1-1s1,0.4,1,1v3.7C49,47.4,48.5,47.8,48,47.8z"/>
	<path class="st5" d="M49.8,46h-3.7c-0.6,0-1-0.4-1-1s0.4-1,1-1h3.7c0.6,0,1,0.4,1,1S50.3,46,49.8,46z"/>
	<path class="st5" d="M59.2,42.9c-0.6,0-1-0.4-1-1v-3c0-0.6,0.4-1,1-1s1,0.4,1,1v3C60.2,42.5,59.7,42.9,59.2,42.9z"/>
	<path class="st5" d="M60.6,41.4h-3c-0.6,0-1-0.4-1-1s0.4-1,1-1h3c0.6,0,1,0.4,1,1S61.2,41.4,60.6,41.4z"/>
	<path class="st5" d="M21,28.8c-0.6,0-1-0.4-1-1v-3c0-0.6,0.4-1,1-1s1,0.4,1,1v3C22,28.3,21.6,28.8,21,28.8z"/>
	<path class="st5" d="M22.5,27.3h-3c-0.6,0-1-0.4-1-1s0.4-1,1-1h3c0.6,0,1,0.4,1,1S23.1,27.3,22.5,27.3z"/>
	<path class="st5" d="M28.4,46.8c-0.6,0-1-0.4-1-1v-1.8c0-0.6,0.4-1,1-1s1,0.4,1,1v1.8C29.4,46.4,29,46.8,28.4,46.8z"/>
	<path class="st5" d="M29.3,46h-1.8c-0.6,0-1-0.4-1-1s0.4-1,1-1h1.8c0.6,0,1,0.4,1,1S29.8,46,29.3,46z"/>
	<path class="st5" d="M51.3,20.4c-0.6,0-1-0.4-1-1v-1.8c0-0.6,0.4-1,1-1s1,0.4,1,1v1.8C52.3,19.9,51.9,20.4,51.3,20.4z"/>
	<path class="st5" d="M52.2,19.5h-1.8c-0.6,0-1-0.4-1-1s0.4-1,1-1h1.8c0.6,0,1,0.4,1,1S52.7,19.5,52.2,19.5z"/>
	<path class="st5" d="M15.7,42.9c-0.6,0-1-0.4-1-1v-6.1c0-0.6,0.4-1,1-1s1,0.4,1,1v6.1C16.7,42.5,16.2,42.9,15.7,42.9z"/>
	<path class="st5" d="M18.6,39.9h-6.1c-0.6,0-1-0.4-1-1s0.4-1,1-1h6.1c0.6,0,1,0.4,1,1S19.2,39.9,18.6,39.9z"/>
</g>
</svg>
